<svg width="66" height="67" viewBox="0 0 66 67" fill="none" xmlns="http://www.w3.org/2000/svg">
<path d="M48.1167 2.94489L46.448 0L44.7794 2.94489L43.1107 5.90422H44.8359V42.6865H48.0601V5.90422H49.7853L48.1167 2.94489Z" fill="url(#paint0_linear_6_4178)"/>
<path d="M54.9603 13.8292L53.2917 10.8843L51.623 13.8292L49.9543 16.7741H51.6796V47.4068H54.9037V16.7741H56.629L54.9603 13.8292Z" fill="url(#paint1_linear_6_4178)"/>
<path d="M41.3573 8.96481V34.7038L9.49728 52.6474L8.38013 51.608V27.5436L41.3573 8.96481Z" fill="url(#paint2_linear_6_4178)"/>
<path d="M40.028 11.2453V33.9095L39.9714 33.9383L31.7695 38.5578L9.69519 51.0014V28.3517L11.5618 27.2979L19.7637 22.6785L20.8808 22.0433L23.907 20.3399L40.028 11.2453Z" fill="url(#paint3_linear_6_4178)"/>
<path d="M61.0556 45.848L30.8784 64.8599L28.6865 64.7877L12.0424 55.3611L12.2121 55.1879L9.49695 52.6472L41.357 34.6891L44.4822 36.4647L46.5751 37.6484L50.1103 39.6406L52.1891 40.8243L55.7244 42.8309L57.8031 44.0146L61.0556 45.848Z" fill="url(#paint4_linear_6_4178)"/>
<path d="M11.11 53.2833L41.3579 36.2347L58.4404 45.9211L29.8611 63.9225L11.11 53.2833Z" fill="url(#paint5_linear_6_4178)"/>
<path d="M35.7291 53.5132L45.0057 47.7966L50.4925 50.9003L41.329 56.6746L35.7291 53.5132Z" fill="url(#paint6_linear_6_4178)"/>
<path d="M28.6871 64.7879L27.3295 64.7446L11.5763 55.8233L12.043 55.3613L28.6871 64.7879Z" fill="url(#paint7_linear_6_4178)"/>
<path d="M61.0564 45.8485V46.6858L31.9963 64.8893L30.8792 64.8604L61.0564 45.8485Z" fill="url(#paint8_linear_6_4178)"/>
<path style="mix-blend-mode:screen" d="M39.971 33.9386L31.7691 38.5581L11.5614 27.2982L19.7633 22.6787L39.971 33.9386Z" fill="url(#paint9_linear_6_4178)"/>
<path style="mix-blend-mode:screen" d="M40.0286 29.3195V32.2355V32.7263L20.8815 22.0438L23.9077 20.3404L40.0286 29.3195Z" fill="url(#paint10_linear_6_4178)"/>
<path d="M31.204 63.8494C18.0244 63.8494 7.34784 52.9505 7.34784 39.5108C7.34784 26.0566 18.0244 15.1576 31.204 15.1576C31.5999 15.1576 31.9817 15.1721 32.3777 15.1865L35.9978 13.1511C34.4423 12.8479 32.8443 12.7036 31.204 12.7036C16.6951 12.7036 4.94385 24.6997 4.94385 39.5108C4.94385 54.3074 16.6951 66.3035 31.204 66.3035C41.2866 66.3035 50.04 60.5004 54.4379 51.9833L49.545 55.0436C45.1754 60.4282 38.5856 63.8494 31.204 63.8494Z" fill="url(#paint11_linear_6_4178)"/>
<defs>
<linearGradient id="paint0_linear_6_4178" x1="177.48" y1="-14.6009" x2="177.48" y2="42.4234" gradientUnits="userSpaceOnUse">
<stop stop-color="#FFAD4B"/>
<stop offset="1" stop-color="#77007C"/>
</linearGradient>
<linearGradient id="paint1_linear_6_4178" x1="149.26" y1="7.80429" x2="149.26" y2="51.1136" gradientUnits="userSpaceOnUse">
<stop stop-color="#FFAD4B"/>
<stop offset="1" stop-color="#77007C"/>
</linearGradient>
<linearGradient id="paint2_linear_6_4178" x1="8.37603" y1="8.96424" x2="41.3542" y2="8.96424" gradientUnits="userSpaceOnUse">
<stop stop-color="#461885"/>
<stop offset="1" stop-color="#AA51E0"/>
</linearGradient>
<linearGradient id="paint3_linear_6_4178" x1="64.41" y1="36.2895" x2="29.4408" y2="70.2006" gradientUnits="userSpaceOnUse">
<stop stop-color="#FFAD4B"/>
<stop offset="1" stop-color="#77007C"/>
</linearGradient>
<linearGradient id="paint4_linear_6_4178" x1="9.49539" y1="34.6903" x2="61.0526" y2="34.6903" gradientUnits="userSpaceOnUse">
<stop stop-color="#461885"/>
<stop offset="1" stop-color="#AA51E0"/>
</linearGradient>
<linearGradient id="paint5_linear_6_4178" x1="62.0628" y1="48.0888" x2="33.0216" y2="70.6974" gradientUnits="userSpaceOnUse">
<stop stop-color="#AA51E0"/>
<stop offset="1" stop-color="#461885"/>
</linearGradient>
<linearGradient id="paint6_linear_6_4178" x1="32.9454" y1="37.9041" x2="52.6919" y2="52.6283" gradientUnits="userSpaceOnUse">
<stop stop-color="#AA51E0"/>
<stop offset="1" stop-color="#461885"/>
</linearGradient>
<linearGradient id="paint7_linear_6_4178" x1="17.6339" y1="65.4144" x2="17.6339" y2="56.2646" gradientUnits="userSpaceOnUse">
<stop stop-color="#AA51E0"/>
<stop offset="1" stop-color="#461885"/>
</linearGradient>
<linearGradient id="paint8_linear_6_4178" x1="49.1143" y1="44.2853" x2="63.7905" y2="52.7153" gradientUnits="userSpaceOnUse">
<stop stop-color="#461885"/>
<stop offset="1" stop-color="#AA51E0"/>
</linearGradient>
<linearGradient id="paint9_linear_6_4178" x1="12.4321" y1="12.7915" x2="44.5789" y2="30.1115" gradientUnits="userSpaceOnUse">
<stop stop-color="#FFAD4B"/>
<stop offset="1" stop-color="#77007C" stop-opacity="0"/>
</linearGradient>
<linearGradient id="paint10_linear_6_4178" x1="21.612" y1="13.2093" x2="44.0649" y2="25.3063" gradientUnits="userSpaceOnUse">
<stop stop-color="#FFAD4B"/>
<stop offset="1" stop-color="#77007C" stop-opacity="0"/>
</linearGradient>
<linearGradient id="paint11_linear_6_4178" x1="4.94682" y1="12.6981" x2="54.4379" y2="12.6981" gradientUnits="userSpaceOnUse">
<stop stop-color="#FFAD4B"/>
<stop offset="1" stop-color="#77007C"/>
</linearGradient>
</defs>
</svg>
