<svg width="82" height="60" viewBox="0 0 82 60" fill="none" xmlns="http://www.w3.org/2000/svg">
<path fill-rule="evenodd" clip-rule="evenodd" d="M27.1133 4.14618C25.9659 5.92764 25.4375 8.16202 24.9242 10.3209C24.5467 11.8608 23.4748 17.1599 23.3541 21.1003C23.1226 21.1506 22.8861 21.2009 22.6445 21.2512C21.6632 21.4626 20.6366 21.7645 19.6704 22.1118C19.4791 22.1822 19.2929 22.2527 19.1118 22.3231C18.9407 22.3936 18.7696 22.464 18.5985 22.5345C18.2965 22.6704 18.0097 22.8062 17.753 22.9421L17.7379 22.9572H17.7228C17.3605 23.1686 16.2735 23.9385 14.0391 26.7919L14.024 26.807L14.0089 26.8221C11.8954 29.5245 9.37413 33.2383 6.55096 37.8883C0.43663 47.9279 -0.106865 51.6418 0.0139084 53.5742V53.5893C0.0239716 53.6899 0.0340424 53.7805 0.0441055 53.861C0.315857 56.186 2.08221 57.8316 4.81479 58.2996C6.62645 58.8884 8.87592 59.2054 11.3518 59.2054C12.3181 59.2054 13.3296 59.145 14.3562 59.0544C14.8846 59.0091 15.5036 58.9488 16.1829 58.8884C22.5237 58.3298 34.4354 57.3787 34.5561 57.3636L35.0543 57.3183L35.462 57.0163C41.9688 52.0494 42.301 51.1133 42.467 50.6604L43.237 48.5468L40.9875 48.3657C40.9271 48.3657 34.6165 47.8675 24.1693 46.4785C23.8221 46.4332 23.3088 46.4181 22.6596 46.4181C21.482 46.4181 19.3986 46.4936 17.0888 46.7654C17.28 46.6949 17.4763 46.6345 17.6776 46.5842C19.2477 46.1313 20.6064 45.1047 21.5122 43.7158C23.2635 40.9832 24.2448 38.8696 24.5165 37.2542C24.5769 36.8768 24.7581 35.7596 24.0636 31.8796C24.114 31.8796 24.1593 31.8796 24.1995 31.8796C24.7279 31.94 25.3771 32.0004 26.0867 32.0004C30.6158 32.0004 33.8315 29.1923 35.8998 23.4252C37.5303 18.8357 39.357 15.937 41.3197 14.8048C41.999 14.4122 42.8898 14.216 43.9617 14.216C44.2032 14.216 44.4498 14.226 44.7014 14.2462C45.3355 14.2915 45.9092 14.3971 46.3772 14.5028C45.7582 15.1973 45.3204 16.0729 45.1694 17.0391C44.943 18.6847 44.5655 20.1793 44.2183 20.9795C43.8409 21.8098 43.6144 22.5647 43.4182 23.229C43.0709 24.3914 42.8596 25.0255 42.2255 25.5992C40.3383 27.3354 38.9192 28.2261 37.9832 28.2261C37.7567 28.2261 37.5454 28.1808 37.2283 28.0751L34.2844 27.0787L35.0091 30.0981C35.0694 30.3095 35.5978 32.2419 38.1191 32.9213H38.1342C38.8135 33.1025 39.508 33.1931 40.1874 33.1931C40.2478 33.1931 40.5799 33.2082 42.2859 33.3138C43.5389 33.4044 44.5052 34.4008 44.5655 35.6388C44.9279 44.0932 44.5504 46.4483 44.3995 47.022C44.0673 47.7769 41.531 52.9401 40.5195 54.7065C40.2327 55.2198 39.9156 55.7331 39.5684 56.2766L37.9077 58.9035H48.3247L48.4304 57.2881C48.4304 57.273 48.521 55.9142 48.6116 53.9063C51.1328 55.9595 53.0652 57.4994 53.0954 57.5296L53.8654 58.1486L54.8014 57.7863C54.892 57.741 57.1716 56.8352 59.4664 55.8086C60.8402 55.1745 61.9423 54.631 62.7123 54.1781C63.603 53.6799 65.2335 52.7438 64.8259 51.1586C64.5541 50.0565 60.5836 43.8063 59.3607 41.9041C57.7453 39.3829 53.7446 33.2534 51.5857 30.7775C50.6648 29.7358 49.7288 28.83 48.7323 28.0298C49.8193 26.5503 50.6195 25.0557 51.1328 23.9234C52.3406 21.3267 53.2162 16.8127 52.5821 14.6689V14.6387L52.567 14.6236C52.567 14.6236 52.5217 14.4575 52.416 14.1707C52.1896 13.5517 51.9329 12.9327 51.6763 12.3439C50.9818 10.7587 50.0307 8.61493 48.521 7.13541C44.5051 3.24035 38.9192 0.870102 33.5748 0.794617C33.5245 0.794617 33.4742 0.794617 33.4239 0.794617C30.646 0.794617 28.5324 1.91181 27.1133 4.14618ZM33.5597 2.50059C38.6777 2.57608 43.8409 4.97652 47.3283 8.35828C48.5965 9.59624 49.4721 11.574 50.1062 13.0233C50.4232 13.7631 50.6648 14.382 50.8007 14.7595C50.8912 15.001 50.9365 15.152 50.9365 15.152C51.3894 16.6919 50.7554 20.6775 49.5778 23.2139C49.1098 24.2254 47.9926 26.4748 46.2564 28.362C47.6604 29.2527 48.9739 30.385 50.3024 31.9098C53.7144 35.8049 62.9236 50.585 63.1652 51.5663C63.4068 52.5325 54.1673 56.186 54.1673 56.186C54.1673 56.186 50.7856 53.4836 47.0717 50.434C46.9056 54.1781 46.7244 57.1824 46.7244 57.1824H41.0177C41.3599 56.649 41.687 56.1055 41.999 55.5519C43.1011 53.6497 45.9394 47.8524 46.03 47.5957C46.6036 45.6935 46.4527 39.5791 46.2715 35.5633C46.1809 33.4497 44.5202 31.7588 42.4066 31.6079C41.3649 31.5475 40.4289 31.4871 40.1874 31.4871C39.6741 31.4871 39.1306 31.4116 38.5569 31.2757C36.9415 30.8228 36.6697 29.6905 36.6697 29.6905C37.0774 29.8264 37.5001 29.9321 37.9832 29.9321C39.191 29.9321 40.7611 29.2829 43.388 26.8674C44.9279 25.4331 44.8222 23.7875 45.7733 21.689C46.2111 20.7228 46.6187 19.0621 46.8754 17.2958C47.1019 15.7559 48.4002 14.6538 49.8948 14.6538C50.1162 14.6538 50.3427 14.6789 50.5742 14.7293C50.1364 14.2915 49.3211 13.6272 48.1436 13.2196C47.8416 13.1139 46.4829 12.6761 44.8373 12.5402C44.5555 12.5201 44.2636 12.51 43.9617 12.51C42.7841 12.51 41.531 12.7063 40.4591 13.3252C37.1679 15.2275 35.1751 20.3756 34.2844 22.8515C31.9745 29.3131 28.6683 30.2944 26.0867 30.2944C25.0902 30.2944 24.2146 30.1434 23.5352 30.1132C23.5151 30.1132 23.495 30.1132 23.4749 30.1132C22.8257 30.1132 22.2973 30.6114 22.252 31.2304C22.2419 31.3311 22.247 31.4368 22.2671 31.5475C22.5841 33.2383 23.0068 35.8652 22.8257 36.9824C22.569 38.5525 21.4065 40.7114 20.0629 42.7948C19.3986 43.8214 18.3871 44.5914 17.2095 44.9386C15.6847 45.3613 14.2505 45.935 13.1182 46.6748C12.4841 47.0673 9.64588 48.8639 8.75515 50.6453C11.8803 48.7431 19.4137 48.1241 22.6596 48.1241C23.2333 48.1241 23.6711 48.1392 23.9429 48.1845C34.5561 49.5885 40.8667 50.0868 40.8667 50.0868C40.5346 50.9926 34.4203 55.6576 34.4203 55.6576C34.4203 55.6576 22.4633 56.6238 16.032 57.1824C15.3526 57.2428 14.7336 57.3032 14.1901 57.3485C13.2038 57.439 12.2577 57.4843 11.3518 57.4843C8.93631 57.4843 6.83781 57.1824 5.22242 56.6389C3.45605 56.3671 1.94634 55.4764 1.75008 53.6648C1.74001 53.5943 1.72995 53.5239 1.71988 53.4534C1.56891 51.1284 3.13902 46.7956 8.01539 38.779C11.2915 33.3893 13.6919 30.0076 15.3526 27.8789C15.3627 27.8688 15.3727 27.8587 15.3828 27.8487C17.6474 24.9651 18.5683 24.4518 18.5683 24.4518C18.7645 24.3461 19.0061 24.2254 19.2929 24.1046C19.4339 24.0442 19.5848 23.9838 19.7459 23.9234C19.9069 23.853 20.078 23.7875 20.2592 23.7272C21.0442 23.4403 22.0104 23.1384 23.0219 22.9119C23.2434 22.8616 23.4698 22.8163 23.7013 22.776H23.7164C24.4864 22.6251 25.0299 21.9759 25.0601 21.2059C25.1657 17.5826 26.1772 12.4345 26.5849 10.7134C27.5813 6.59192 28.5777 2.50059 33.4239 2.50059C33.4641 2.50059 33.5094 2.50059 33.5597 2.50059Z" fill="#00042D"/>
<path d="M1.72033 53.4528C1.73039 53.5233 1.74046 53.5937 1.75052 53.6642C1.94678 55.4758 3.4565 56.3665 5.22286 56.6383C7.44214 57.3781 10.5974 57.68 14.1906 57.3479C14.7341 57.3026 15.353 57.2422 16.0324 57.1818C22.4638 56.6232 34.4207 55.657 34.4207 55.657C34.4207 55.657 40.535 51.8223 40.8672 50.9165C40.8672 50.9165 39.9764 50.7202 38.3007 50.4183C37.1684 50.2069 35.6738 49.9503 33.8319 49.6483C31.1899 49.2105 27.8535 48.6972 23.9433 48.1839C22.2071 47.9423 12.4242 48.4104 8.75559 50.6447C9.64632 48.8633 12.4846 47.0667 13.1187 46.6591C14.2509 45.9344 15.6852 45.3607 17.21 44.938C18.3876 44.5908 19.3991 43.8208 20.0633 42.7942C21.407 40.7108 22.5695 38.5519 22.8261 36.9818C23.0073 35.8646 22.5846 33.2377 22.2675 31.5469C22.2474 31.4362 22.2424 31.3305 22.2524 31.2298C22.3128 30.5957 22.8563 30.0824 23.5357 30.1126C25.9814 30.2334 31.0842 31.8035 34.2848 22.8509C35.1756 20.375 37.1684 15.2269 40.4596 13.3246C41.8032 12.5547 43.4186 12.4339 44.8377 12.5396C46.4833 12.6755 47.842 13.1133 48.144 13.2189C49.3216 13.6266 50.1368 14.2908 50.5746 14.7287C50.3431 14.6783 50.1167 14.6532 49.8953 14.6532C48.4006 14.6532 47.1023 15.7553 46.8758 17.2952C46.6192 19.0615 46.2116 20.7222 45.7737 21.6884C44.8226 23.7869 44.9283 25.4325 43.3884 26.8668C39.7198 30.2485 38.0893 30.173 36.6702 29.6899C36.6702 29.6899 36.9419 30.8222 38.5573 31.2751C39.131 31.411 39.6745 31.4865 40.1878 31.4865C40.4294 31.4865 41.3654 31.5469 42.4071 31.6073C44.5207 31.7582 46.1814 33.4491 46.2719 35.5627C46.4531 39.5785 46.6041 45.6929 46.0304 47.5951C45.9398 47.8518 43.1016 53.6491 41.9995 55.5513C41.6875 56.1049 41.3603 56.6484 41.0181 57.1818H46.7249C46.7249 57.1818 46.906 54.1775 47.0721 50.4334C50.786 53.483 54.1677 56.1854 54.1677 56.1854C54.1677 56.1854 63.4072 52.5319 63.1656 51.5657C62.9241 50.5843 53.7148 35.8043 50.3029 31.9092C48.9743 30.3844 47.6609 29.2521 46.2568 28.3614C47.993 26.4742 49.1102 24.2248 49.5782 23.2132C50.7558 20.6769 51.3899 16.6913 50.937 15.1514C50.937 15.1514 50.8917 15.0004 50.8011 14.7589C50.6652 14.3814 50.4237 13.7624 50.1066 13.0227C49.4725 11.5734 48.5969 9.59564 47.3287 8.35767C43.8413 4.97591 38.6781 2.57547 33.5602 2.49998C28.5932 2.4245 27.5817 6.54602 26.5853 10.7128C26.1777 12.4339 25.1662 17.582 25.0605 21.2053C25.0303 21.9753 24.4868 22.6245 23.7168 22.7754H23.7017C23.4703 22.8157 23.2438 22.861 23.0224 22.9113C22.0109 23.1378 21.0446 23.4397 20.2596 23.7265C20.0784 23.7869 19.9073 23.8524 19.7463 23.9228C19.5853 23.9832 19.4343 24.0436 19.2934 24.104C19.0065 24.2248 18.765 24.3455 18.5687 24.4512C18.5687 24.4512 17.6478 24.9645 15.3832 27.8481C15.3732 27.8581 15.3631 27.8682 15.353 27.8783C13.6923 30.007 11.2919 33.3887 8.01583 38.7784C3.13946 46.795 1.56935 51.1278 1.72033 53.4528Z" fill="url(#paint0_linear_6_4274)"/>
<path style="mix-blend-mode:multiply" d="M13.1183 46.6745C14.2506 45.9347 15.6848 45.361 17.2096 44.9383C18.3872 44.5911 19.3987 43.8211 20.0629 42.7945C21.4066 40.7111 22.5691 38.5522 22.8257 36.9821C23.0069 35.8649 22.5842 33.238 22.2671 31.5471C22.247 31.4364 22.242 31.3308 22.252 31.2301C21.8293 32.6039 21.8444 34.6572 21.4066 35.9102C18.9005 43.4286 13.5712 46.131 13.1183 46.6745Z" fill="url(#paint1_linear_6_4274)"/>
<path style="mix-blend-mode:multiply" d="M1.71995 53.4539C1.73001 53.5244 1.74008 53.5948 1.75014 53.6653C1.94641 55.4769 3.45612 56.3677 5.22248 56.6394C7.44176 57.3792 10.5971 57.6811 14.1902 57.349C14.7337 57.3037 15.3527 57.2433 16.032 57.1829C22.4634 56.6243 34.4203 55.6581 34.4203 55.6581C34.4203 55.6581 36.8057 52.4273 38.3003 50.4194C37.168 50.208 35.6734 49.9514 33.8315 49.6495C32.4426 51.6121 30.3743 53.0161 26.0263 53.6049C19.7006 54.4654 15.0205 55.3713 9.46478 54.7976C6.50574 54.4956 4.33175 53.152 4.55821 51.3101C5.29797 44.8033 11.9407 32.6199 15.3527 27.8794C13.692 30.0081 11.2915 33.3898 8.01546 38.7795C3.13908 46.7961 1.56898 51.129 1.71995 53.4539Z" fill="url(#paint2_linear_6_4274)"/>
<path d="M52.3406 57.363H22.7049C22.3124 57.363 21.9954 57.046 21.9954 56.6535V56.2156C21.9954 55.8231 22.3124 55.5212 22.7049 55.5212H52.3406C52.7331 55.5212 53.0502 55.8231 53.0502 56.2156V56.6535C53.0502 57.046 52.7331 57.363 52.3406 57.363Z" fill="white"/>
<path d="M46.0751 57.363H15.5336C15.2619 57.363 15.0354 57.1366 15.0354 56.8648V56.4421C15.0354 55.9288 15.4581 55.5212 15.9714 55.5212H46.0751C46.0852 55.5212 46.0902 55.5212 46.0902 55.5212V57.3479C46.0902 57.358 46.0852 57.363 46.0751 57.363Z" fill="white"/>
<path d="M46.0751 57.363H15.5336C15.2619 57.363 15.0354 57.1366 15.0354 56.8648V56.4421C15.0354 55.9288 15.4581 55.5212 15.9714 55.5212H46.0751C46.0852 55.5212 46.0902 55.5212 46.0902 55.5212V57.3479C46.0902 57.358 46.0852 57.363 46.0751 57.363Z" fill="white"/>
<path d="M68.9925 57.3637H34.0879C33.3783 57.3637 32.8952 56.6239 33.1821 55.9748L43.4783 32.1817C43.6444 31.8194 43.9916 31.5929 44.3993 31.5929H79.3038C80.0134 31.5929 80.4965 32.3176 80.2096 32.9818L69.9134 56.7598C69.7473 57.1221 69.4001 57.3637 68.9925 57.3637Z" fill="url(#paint3_linear_6_4274)"/>
<path d="M68.9925 57.3637H34.0879C33.3783 57.3637 32.8952 56.6239 33.1821 55.9748L43.4783 32.1817C43.6444 31.8194 43.9916 31.5929 44.3993 31.5929H79.3038C80.0134 31.5929 80.4965 32.3176 80.2096 32.9818L69.9134 56.7598C69.7473 57.1221 69.4001 57.3637 68.9925 57.3637Z" fill="white"/>
<path d="M70.6988 57.3636H35.7942C35.0846 57.3636 34.6015 56.6238 34.8884 55.9746L45.1846 32.1816C45.3507 31.8192 45.6979 31.5928 46.1055 31.5928H81.0101C81.7197 31.5928 82.2028 32.3174 81.9159 32.9817L71.6197 56.7597C71.4536 57.122 71.1064 57.3636 70.6988 57.3636Z" fill="url(#paint4_linear_6_4274)"/>
<path style="mix-blend-mode:multiply" d="M36.67 29.6907C36.67 29.6907 37.5154 31.291 39.5385 30.8834C43.6147 30.0833 46.1963 27.1393 47.5852 23.4405C48.4458 21.1609 48.7477 19.1076 49.0497 17.5828C49.3818 15.8014 50.5745 14.7295 50.5745 14.7295C50.343 14.6792 50.1165 14.654 49.8951 14.654C48.4005 14.654 47.1021 15.7561 46.8757 17.296C46.619 19.0624 46.2114 20.723 45.7736 21.6893C44.8225 23.7878 44.9281 25.4333 43.3882 26.8676C39.7196 30.2493 38.0891 30.1738 36.67 29.6907Z" fill="url(#paint5_linear_6_4274)"/>
<path style="mix-blend-mode:multiply" d="M23.5355 30.1128C25.9812 30.2336 31.084 31.8037 34.2846 22.8511C35.1754 20.3751 37.1682 15.227 40.4594 13.3248C41.803 12.5548 43.4184 12.4341 44.8375 12.5397C35.9151 10.8187 34.1488 17.401 30.5556 23.621C27.6268 28.6937 24.6376 29.2975 23.5355 30.1128Z" fill="url(#paint6_linear_6_4274)"/>
<path d="M28.4417 37.2993C28.5474 35.4272 28.638 33.5099 28.6229 32.3474C28.6229 32.1813 28.7437 32.0455 28.9097 32.0455C29.0758 32.0455 29.2117 32.1662 29.2117 32.3323C29.2268 33.525 29.1211 35.4574 29.0305 37.3295C28.9399 38.96 28.8644 40.6659 28.8644 41.768C28.8644 41.919 28.7286 42.0549 28.5625 42.0549C28.3964 42.0549 28.2757 41.919 28.2757 41.768C28.2757 40.6508 28.3511 39.0203 28.4417 37.2993Z" fill="url(#paint7_linear_6_4274)"/>
<path d="M36.247 32.9219C36.247 32.7558 36.3677 32.6199 36.5338 32.6199C36.6999 32.6199 36.8358 32.7407 36.8358 32.9068C36.8659 34.809 36.7754 36.9377 36.6848 39.006C36.6395 39.9269 36.5942 40.8177 36.564 41.6631C36.564 41.8292 36.4281 41.95 36.2772 41.95C36.2772 41.95 36.2721 41.95 36.2621 41.95C36.1111 41.95 35.9752 41.799 35.9752 41.648C36.0054 40.7875 36.0507 39.8967 36.096 38.9758C36.1866 36.9226 36.2772 34.809 36.247 32.9219Z" fill="url(#paint8_linear_6_4274)"/>
<defs>
<linearGradient id="paint0_linear_6_4274" x1="66.6994" y1="48.7041" x2="55.5151" y2="-4.80523" gradientUnits="userSpaceOnUse">
<stop stop-color="#FF00C1"/>
<stop offset="1" stop-color="#F4AC24"/>
</linearGradient>
<linearGradient id="paint1_linear_6_4274" x1="30.1566" y1="48.3276" x2="30.9189" y2="30.6381" gradientUnits="userSpaceOnUse">
<stop stop-color="#F4D63B" stop-opacity="0"/>
<stop offset="1" stop-color="#5C1CB2"/>
</linearGradient>
<linearGradient id="paint2_linear_6_4274" x1="1.16332" y1="36.3267" x2="14.8844" y2="78.5875" gradientUnits="userSpaceOnUse">
<stop stop-color="#F4D63B" stop-opacity="0"/>
<stop offset="1" stop-color="#5C1CB2"/>
</linearGradient>
<linearGradient id="paint3_linear_6_4274" x1="50.3366" y1="28.9397" x2="43.3088" y2="56.489" gradientUnits="userSpaceOnUse">
<stop stop-color="#A76DFC"/>
<stop offset="1" stop-color="#5C1CB2"/>
</linearGradient>
<linearGradient id="paint4_linear_6_4274" x1="52.0432" y1="28.9396" x2="45.0154" y2="56.4888" gradientUnits="userSpaceOnUse">
<stop stop-color="#A76DFC"/>
<stop offset="1" stop-color="#5C1CB2"/>
</linearGradient>
<linearGradient id="paint5_linear_6_4274" x1="62.2883" y1="35.1793" x2="48.841" y2="4.85928" gradientUnits="userSpaceOnUse">
<stop stop-color="#F4D63B" stop-opacity="0"/>
<stop offset="1" stop-color="#5C1CB2"/>
</linearGradient>
<linearGradient id="paint6_linear_6_4274" x1="28.2127" y1="4.92323" x2="21.9047" y2="32.9477" gradientUnits="userSpaceOnUse">
<stop stop-color="#F4D63B" stop-opacity="0"/>
<stop offset="1" stop-color="#5C1CB2"/>
</linearGradient>
<linearGradient id="paint7_linear_6_4274" x1="-25.0286" y1="33.4814" x2="-24.2474" y2="45.9025" gradientUnits="userSpaceOnUse">
<stop stop-color="#F4AC24"/>
<stop offset="1" stop-color="#FF00C1"/>
</linearGradient>
<linearGradient id="paint8_linear_6_4274" x1="-14.7461" y1="32.8342" x2="-13.9655" y2="45.2484" gradientUnits="userSpaceOnUse">
<stop stop-color="#F4AC24"/>
<stop offset="1" stop-color="#FF00C1"/>
</linearGradient>
</defs>
</svg>
