<svg width="66" height="60" viewBox="0 0 66 60" fill="none" xmlns="http://www.w3.org/2000/svg">
<path d="M60.4471 60.0001C53.5507 55.1517 44.1046 52.1517 33.6756 52.1517C23.2619 52.1517 13.8158 55.1517 6.91943 60.0001H60.4471Z" fill="white"/>
<path d="M63.4424 57.1959C62.0754 57.3778 43.8591 57.1959 43.8591 57.1959L43.429 55.3172L41.7702 47.9233C41.7702 47.9233 48.4823 48.2566 48.0676 47.7566C47.6529 47.2718 46.9156 39.6658 43.1833 38.5143C39.4509 37.3627 33.6758 37.1961 33.6758 37.1961V22.7416L39.0055 19.2113C41.5859 22.181 55.348 29.7416 57.0221 33.3628C58.6963 36.9688 65.2701 46.1657 65.8692 49.7718C66.4835 53.3929 64.8094 57.0293 63.4424 57.1959Z" fill="url(#paint0_linear_6_4150)"/>
<path style="mix-blend-mode:multiply" d="M63.4421 57.196C62.0751 57.3778 43.8588 57.196 43.8588 57.196L43.4287 55.3172C46.8078 55.1808 51.7535 54.9232 56.2999 54.5445C64.1947 53.8778 65.8688 49.7718 65.8688 49.7718C66.4832 53.3929 64.809 57.0293 63.4421 57.196Z" fill="url(#paint1_linear_6_4150)"/>
<path style="mix-blend-mode:multiply" d="M60.4474 48.1822C60.4474 48.1822 56.3311 39.3489 52.1533 37.0914L53.4742 47.2428L60.4474 48.1822Z" fill="url(#paint2_linear_6_4150)"/>
<path d="M52.1527 49.0443C52.1527 49.0443 57.9124 47.2867 63.1193 49.8322C63.1193 49.8322 61.7984 47.2564 56.2536 46.1352C56.2536 46.1352 52.721 34.6656 48.5432 34.1353C44.3654 33.5899 44.1504 49.8322 44.1504 49.8322L52.1527 49.0443Z" fill="#00042D"/>
<path d="M26.9945 19.2113C24.4141 22.181 10.652 29.7416 8.97787 33.3628C7.30369 36.9688 0.729846 46.1657 0.130828 49.7718C-0.48355 53.3929 1.19063 57.0293 2.55762 57.1959C3.92461 57.3778 22.1409 57.1959 22.1409 57.1959L24.2298 47.9233C24.2298 47.9233 17.5177 48.2566 17.9324 47.7566C18.3471 47.2718 19.0844 39.6658 22.8167 38.5143C26.5491 37.3627 32.3242 37.1961 32.3242 37.1961V22.7416L26.9945 19.2113Z" fill="url(#paint3_linear_6_4150)"/>
<path style="mix-blend-mode:multiply" d="M2.55762 57.196C3.92461 57.3778 22.1409 57.196 22.1409 57.196L22.571 55.3172C19.1919 55.1808 14.2462 54.9232 9.69976 54.5445C1.805 53.8778 0.130828 49.7718 0.130828 49.7718C-0.48355 53.3929 1.19063 57.0293 2.55762 57.196Z" fill="url(#paint4_linear_6_4150)"/>
<path style="mix-blend-mode:multiply" d="M5.55176 48.1822C5.55176 48.1822 9.66809 39.3489 13.8459 37.0914L12.5249 47.2428L5.55176 48.1822Z" fill="url(#paint5_linear_6_4150)"/>
<path d="M14.3377 49.0443C14.3377 49.0443 8.57794 47.2867 3.37109 49.8322C3.37109 49.8322 4.69201 47.2564 10.2214 46.1352C10.2214 46.1352 13.7541 34.6656 17.9472 34.1353C22.125 33.5899 22.3246 49.8322 22.3246 49.8322L14.3377 49.0443Z" fill="#00042D"/>
<path d="M46.8387 18.667C46.639 22.9548 45.8864 32.0002 42.8299 34.4547C40.5413 36.2881 36.3943 35.1366 33.2917 35.1366C29.6668 35.1366 25.9959 36.8638 23.5691 34.4547C21.1116 32.0305 19.9136 22.4245 19.7446 18.667C22.1253 13.6367 27.3015 10.1367 33.2917 10.1367C39.2972 10.1367 44.4733 13.6367 46.8387 18.667Z" fill="url(#paint6_linear_6_4150)"/>
<path style="mix-blend-mode:multiply" d="M20.3442 14.4086C20.3442 20.7116 21.9723 27.3176 23.2472 30.2419C24.5374 33.1661 28.8073 38.4842 33.3076 39.2721C37.8079 40.06 42.2161 33.6206 43.6291 29.8025C45.9331 23.651 46.1481 13.5602 46.1481 13.5602C46.1481 13.5602 38.8063 6.96929 31.9406 7.5905C25.0903 8.19656 20.3442 14.4086 20.3442 14.4086Z" fill="url(#paint7_linear_6_4150)"/>
<path d="M23.124 12.8643C23.124 17.743 24.3989 22.8491 25.4126 25.1066C26.4109 27.3793 29.2371 32.1066 33.292 32.1066C36.8707 32.1066 40.2805 27.7278 41.3864 24.7884C43.1988 20.0157 43.3678 12.1976 43.3678 12.1976C43.3678 12.1976 37.608 7.10674 32.2322 7.57643C26.841 8.04613 23.124 12.8643 23.124 12.8643Z" fill="#00042D"/>
<path d="M33.2918 1.52588e-05C28.2999 1.52588e-05 19.7294 10.1818 19.7294 17.9847C19.7294 18.2171 19.7345 18.4443 19.7447 18.6666C22.1254 13.6363 27.3016 10.1363 33.2918 10.1363C39.2973 10.1363 44.4734 13.6363 46.8388 18.6666C46.849 18.4443 46.8541 18.2171 46.8541 17.9847C46.8541 10.1818 38.4525 1.52588e-05 33.2918 1.52588e-05Z" fill="url(#paint8_linear_6_4150)"/>
<path d="M49.589 56.3776H16.9963C15.4604 56.3776 14.1702 55.2109 14.0473 53.6958L12.2042 32.802C12.0506 31.0899 13.4176 29.6202 15.1532 29.6202H51.4322C53.1832 29.6202 54.5348 31.0899 54.3965 32.802L52.5534 53.6958C52.4152 55.2109 51.1403 56.3776 49.589 56.3776Z" fill="white"/>
<path d="M49.589 57.287H16.9963C15.4604 57.287 14.1702 56.1203 14.0473 54.6052L12.2042 33.7114C12.0506 31.9993 13.4176 30.5296 15.1532 30.5296H51.4322C53.1832 30.5296 54.5348 31.9993 54.3965 33.7114L52.5534 54.6052C52.4152 56.1203 51.1403 57.287 49.589 57.287Z" fill="url(#paint9_linear_6_4150)"/>
<g style="mix-blend-mode:multiply">
<path d="M16.9502 30.5296H15.1532C13.4176 30.5296 12.0506 31.9993 12.2042 33.7114L14.0473 54.6052C14.1702 56.1203 15.4604 57.287 16.9963 57.287H18.2711L16.9502 30.5296Z" fill="url(#paint10_linear_6_4150)"/>
<path d="M51.4314 30.5294H49.6344L48.3135 57.2868H49.5883C51.1396 57.2868 52.4144 56.1201 52.5527 54.605L54.3958 33.7112C54.534 31.9991 53.1824 30.5294 51.4314 30.5294Z" fill="url(#paint11_linear_6_4150)"/>
</g>
<defs>
<linearGradient id="paint0_linear_6_4150" x1="5.27234" y1="58.4169" x2="45.9441" y2="-17.6596" gradientUnits="userSpaceOnUse">
<stop stop-color="#FF00C1"/>
<stop offset="1" stop-color="#F4AC24"/>
</linearGradient>
<linearGradient id="paint1_linear_6_4150" x1="48.8518" y1="59.7137" x2="55.7609" y2="44.3183" gradientUnits="userSpaceOnUse">
<stop stop-color="#F4D63B" stop-opacity="0"/>
<stop offset="1" stop-color="#5C1CB2"/>
</linearGradient>
<linearGradient id="paint2_linear_6_4150" x1="66.2349" y1="34.7806" x2="63.6052" y2="50.3944" gradientUnits="userSpaceOnUse">
<stop stop-color="#F4D63B" stop-opacity="0"/>
<stop offset="1" stop-color="#5C1CB2"/>
</linearGradient>
<linearGradient id="paint3_linear_6_4150" x1="-16.0966" y1="35.9993" x2="12.0575" y2="-16.663" gradientUnits="userSpaceOnUse">
<stop stop-color="#FF00C1"/>
<stop offset="1" stop-color="#F4AC24"/>
</linearGradient>
<linearGradient id="paint4_linear_6_4150" x1="17.1479" y1="59.7137" x2="10.2388" y2="44.3183" gradientUnits="userSpaceOnUse">
<stop stop-color="#F4D63B" stop-opacity="0"/>
<stop offset="1" stop-color="#5C1CB2"/>
</linearGradient>
<linearGradient id="paint5_linear_6_4150" x1="-0.235678" y1="34.7806" x2="2.394" y2="50.3944" gradientUnits="userSpaceOnUse">
<stop stop-color="#F4D63B" stop-opacity="0"/>
<stop offset="1" stop-color="#5C1CB2"/>
</linearGradient>
<linearGradient id="paint6_linear_6_4150" x1="-2.12045" y1="51.9957" x2="30.7182" y2="-9.42894" gradientUnits="userSpaceOnUse">
<stop stop-color="#FF00C1"/>
<stop offset="1" stop-color="#F4AC24"/>
</linearGradient>
<linearGradient id="paint7_linear_6_4150" x1="9.92762" y1="38.1132" x2="12.8861" y2="8.98031" gradientUnits="userSpaceOnUse">
<stop stop-color="#F4D63B" stop-opacity="0"/>
<stop offset="1" stop-color="#5C1CB2"/>
</linearGradient>
<linearGradient id="paint8_linear_6_4150" x1="-1.92514" y1="52.0751" x2="30.493" y2="-8.56288" gradientUnits="userSpaceOnUse">
<stop stop-color="#FF00C1"/>
<stop offset="1" stop-color="#F4AC24"/>
</linearGradient>
<linearGradient id="paint9_linear_6_4150" x1="52.6635" y1="30.1656" x2="36.9002" y2="71.3634" gradientUnits="userSpaceOnUse">
<stop stop-color="#A76DFC"/>
<stop offset="1" stop-color="#5C1CB2"/>
</linearGradient>
<linearGradient id="paint10_linear_6_4150" x1="76.7318" y1="33.3097" x2="75.5498" y2="58.6755" gradientUnits="userSpaceOnUse">
<stop stop-color="white" stop-opacity="0"/>
<stop offset="1" stop-color="#5C1CB2"/>
</linearGradient>
<linearGradient id="paint11_linear_6_4150" x1="112.78" y1="34.924" x2="111.604" y2="60.1508" gradientUnits="userSpaceOnUse">
<stop stop-color="white" stop-opacity="0"/>
<stop offset="1" stop-color="#5C1CB2"/>
</linearGradient>
</defs>
</svg>
