<svg width="320" height="284" viewBox="0 0 320 284" fill="none" xmlns="http://www.w3.org/2000/svg">
<g opacity="0.7">
<mask id="mask0_7_4370" style="mask-type:luminance" maskUnits="userSpaceOnUse" x="-35" y="0" width="389" height="284">
<path d="M-35 0H354V284H-35V0Z" fill="white"/>
</mask>
<g mask="url(#mask0_7_4370)">
<path d="M60.1084 128.254H31.5234V152.953H60.1084V128.254Z" fill="url(#paint0_radial_7_4370)" fill-opacity="0.06"/>
<path d="M174.448 54.1575H145.863V78.8564H174.448V54.1575Z" fill="url(#paint1_radial_7_4370)" fill-opacity="0.06"/>
<path d="M145.863 202.35H117.278V227.049H145.863V202.35Z" fill="url(#paint2_radial_7_4370)" fill-opacity="0.06"/>
<path d="M260.203 152.953H231.618V177.652H260.203V152.953Z" fill="url(#paint3_radial_7_4370)" fill-opacity="0.06"/>
<path d="M174.448 128.254H145.863V152.953H174.448V128.254Z" fill="url(#paint4_radial_7_4370)" fill-opacity="0.06"/>
<path d="M-25.6466 -44.6377H-54.2316V-19.9387M-25.6466 -44.6377V-19.9387M-25.6466 -44.6377H2.93832M-54.2316 -19.9387H-25.6466M-54.2316 -19.9387V4.75988M-25.6466 -19.9387H2.93832M-25.6466 -19.9387V4.75988M2.93832 -44.6377V-19.9387M2.93832 -44.6377H31.5233M2.93832 -19.9387H31.5233M2.93832 -19.9387V4.75988M-25.6466 4.75988H-54.2316M-25.6466 4.75988H2.93832M-25.6466 4.75988V29.4589M-54.2316 4.75988V29.4589M31.5233 -44.6377V-19.9387M31.5233 -44.6377H60.1082M31.5233 -19.9387H60.1082M31.5233 -19.9387V4.75988M2.93832 4.75988H31.5233M2.93832 4.75988V29.4589M60.1082 -44.6377V-19.9387M60.1082 -44.6377H88.6932M60.1082 -19.9387H88.6932M60.1082 -19.9387V4.75988M31.5233 4.75988H60.1082M31.5233 4.75988V29.4589M88.6932 -44.6377V-19.9387M88.6932 -44.6377H117.278M88.6932 -19.9387H117.278M88.6932 -19.9387V4.75988M60.1082 4.75988H88.6932M60.1082 4.75988V29.4589M117.278 -44.6377V-19.9387M117.278 -44.6377H145.863M117.278 -19.9387H145.863M117.278 -19.9387V4.75988M88.6932 4.75988H117.278M88.6932 4.75988V29.4589M145.863 -44.6377V-19.9387M145.863 -44.6377H174.448M145.863 -19.9387H174.448M145.863 -19.9387V4.75988M117.278 4.75988H145.863M117.278 4.75988V29.4589M174.448 -44.6377V-19.9387M174.448 -44.6377H203.033M174.448 -19.9387H203.033M174.448 -19.9387V4.75988M145.863 4.75988H174.448M145.863 4.75988V29.4589M203.033 -44.6377V-19.9387M203.033 -44.6377H231.618M203.033 -19.9387H231.618M203.033 -19.9387V4.75988M174.448 4.75988H203.033M174.448 4.75988V29.4589M231.618 -44.6377V-19.9387M231.618 -44.6377H260.203M231.618 -19.9387H260.203M231.618 -19.9387V4.75988M203.033 4.75988H231.618M203.033 4.75988V29.4589M260.203 -44.6377V-19.9387M260.203 -44.6377H288.788M260.203 -19.9387H288.788M260.203 -19.9387V4.75988M231.618 4.75988H260.203M231.618 4.75988V29.4589M288.788 -44.6377V-19.9387M288.788 -44.6377H317.373M288.788 -19.9387H317.373M288.788 -19.9387V4.75988M260.203 4.75988H288.788M260.203 4.75988V29.4589M317.373 -44.6377V-19.9387M317.373 -44.6377H345.958M317.373 -19.9387H345.958M317.373 -19.9387V4.75988M288.788 4.75988H317.373M288.788 4.75988V29.4589M345.958 -44.6377V-19.9387M345.958 -44.6377H374.543V-19.9387M345.958 -19.9387H374.543M345.958 -19.9387V4.75988M317.373 4.75988H345.958M317.373 4.75988V29.4589M374.543 -19.9387V4.75988M345.958 4.75988H374.543M345.958 4.75988V29.4589M374.543 4.75988V29.4589M-25.6466 29.4589H-54.2316M-25.6466 29.4589H2.93832M-25.6466 29.4589V54.1575M-54.2316 29.4589V54.1575M2.93832 29.4589H31.5233M2.93832 29.4589V54.1575M31.5233 29.4589H60.1082M31.5233 29.4589V54.1575M60.1082 29.4589H88.6932M60.1082 29.4589V54.1575M88.6932 29.4589H117.278M88.6932 29.4589V54.1575M117.278 29.4589H145.863M117.278 29.4589V54.1575M145.863 29.4589H174.448M145.863 29.4589V54.1575M174.448 29.4589H203.033M174.448 29.4589V54.1575M203.033 29.4589H231.618M203.033 29.4589V54.1575M231.618 29.4589H260.203M231.618 29.4589V54.1575M260.203 29.4589H288.788M260.203 29.4589V54.1575M288.788 29.4589H317.373M288.788 29.4589V54.1575M317.373 29.4589H345.958M317.373 29.4589V54.1575M345.958 29.4589H374.543M345.958 29.4589V54.1575M374.543 29.4589V54.1575M-25.6466 54.1575H-54.2316M-25.6466 54.1575H2.93832M-25.6466 54.1575V78.8564M-54.2316 54.1575V78.8564M2.93832 54.1575H31.5233M2.93832 54.1575V78.8564M31.5233 54.1575H60.1082M31.5233 54.1575V78.8564M60.1082 54.1575H88.6932M60.1082 54.1575V78.8564M88.6932 54.1575H117.278M88.6932 54.1575V78.8564M117.278 54.1575H145.863M117.278 54.1575V78.8564M145.863 54.1575H174.448M145.863 54.1575V78.8564M174.448 54.1575H203.033M174.448 54.1575V78.8564M203.033 54.1575H231.618M203.033 54.1575V78.8564M231.618 54.1575H260.203M231.618 54.1575V78.8564M260.203 54.1575H288.788M260.203 54.1575V78.8564M288.788 54.1575H317.373M288.788 54.1575V78.8564M317.373 54.1575H345.958M317.373 54.1575V78.8564M345.958 54.1575H374.543M345.958 54.1575V78.8564M374.543 54.1575V78.8564M-25.6466 78.8564H-54.2316M-25.6466 78.8564H2.93832M-25.6466 78.8564V103.555M-54.2316 78.8564V103.555M2.93832 78.8564H31.5233M2.93832 78.8564V103.555M31.5233 78.8564H60.1082M31.5233 78.8564V103.555M60.1082 78.8564H88.6932M60.1082 78.8564V103.555M88.6932 78.8564H117.278M88.6932 78.8564V103.555M117.278 78.8564H145.863M117.278 78.8564V103.555M145.863 78.8564H174.448M145.863 78.8564V103.555M174.448 78.8564H203.033M174.448 78.8564V103.555M203.033 78.8564H231.618M203.033 78.8564V103.555M231.618 78.8564H260.203M231.618 78.8564V103.555M260.203 78.8564H288.788M260.203 78.8564V103.555M288.788 78.8564H317.373M288.788 78.8564V103.555M317.373 78.8564H345.958M317.373 78.8564V103.555M345.958 78.8564H374.543M345.958 78.8564V103.555M374.543 78.8564V103.555M-25.6466 103.555H-54.2316M-25.6466 103.555H2.93832M-25.6466 103.555V128.254M-54.2316 103.555V128.254M2.93832 103.555H31.5233M2.93832 103.555V128.254M31.5233 103.555H60.1082M31.5233 103.555V128.254M60.1082 103.555H88.6932M60.1082 103.555V128.254M88.6932 103.555H117.278M88.6932 103.555V128.254M117.278 103.555H145.863M117.278 103.555V128.254M145.863 103.555H174.448M145.863 103.555V128.254M174.448 103.555H203.033M174.448 103.555V128.254M203.033 103.555H231.618M203.033 103.555V128.254M231.618 103.555H260.203M231.618 103.555V128.254M260.203 103.555H288.788M260.203 103.555V128.254M288.788 103.555H317.373M288.788 103.555V128.254M317.373 103.555H345.958M317.373 103.555V128.254M345.958 103.555H374.543M345.958 103.555V128.254M374.543 103.555V128.254M-25.6466 128.254H-54.2316M-25.6466 128.254H2.93832M-25.6466 128.254V152.953M-54.2316 128.254V152.953M2.93832 128.254H31.5233M2.93832 128.254V152.953M31.5233 128.254H60.1082M31.5233 128.254V152.953M60.1082 128.254H88.6932M60.1082 128.254V152.953M88.6932 128.254H117.278M88.6932 128.254V152.953M117.278 128.254H145.863M117.278 128.254V152.953M145.863 128.254H174.448M145.863 128.254V152.953M174.448 128.254H203.033M174.448 128.254V152.953M203.033 128.254H231.618M203.033 128.254V152.953M231.618 128.254H260.203M231.618 128.254V152.953M260.203 128.254H288.788M260.203 128.254V152.953M288.788 128.254H317.373M288.788 128.254V152.953M317.373 128.254H345.958M317.373 128.254V152.953M345.958 128.254H374.543M345.958 128.254V152.953M374.543 128.254V152.953M-25.6466 152.953H-54.2316M-25.6466 152.953H2.93832M-25.6466 152.953V177.652M-54.2316 152.953V177.652M2.93832 152.953H31.5233M2.93832 152.953V177.652M31.5233 152.953H60.1082M31.5233 152.953V177.652M60.1082 152.953H88.6932M60.1082 152.953V177.652M88.6932 152.953H117.278M88.6932 152.953V177.652M117.278 152.953H145.863M117.278 152.953V177.652M145.863 152.953H174.448M145.863 152.953V177.652M174.448 152.953H203.033M174.448 152.953V177.652M203.033 152.953H231.618M203.033 152.953V177.652M231.618 152.953H260.203M231.618 152.953V177.652M260.203 152.953H288.788M260.203 152.953V177.652M288.788 152.953H317.373M288.788 152.953V177.652M317.373 152.953H345.958M317.373 152.953V177.652M345.958 152.953H374.543M345.958 152.953V177.652M374.543 152.953V177.652M-25.6466 177.652H-54.2316M-25.6466 177.652H2.93832M-25.6466 177.652V202.351M-54.2316 177.652V202.351M2.93832 177.652H31.5233M2.93832 177.652V202.351M31.5233 177.652H60.1082M31.5233 177.652V202.351M60.1082 177.652H88.6932M60.1082 177.652V202.351M88.6932 177.652H117.278M88.6932 177.652V202.351M117.278 177.652H145.863M117.278 177.652V202.351M145.863 177.652H174.448M145.863 177.652V202.351M174.448 177.652H203.033M174.448 177.652V202.351M203.033 177.652H231.618M203.033 177.652V202.351M231.618 177.652H260.203M231.618 177.652V202.351M260.203 177.652H288.788M260.203 177.652V202.351M288.788 177.652H317.373M288.788 177.652V202.351M317.373 177.652H345.958M317.373 177.652V202.351M345.958 177.652H374.543M345.958 177.652V202.351M374.543 177.652V202.351M-25.6466 202.351H-54.2316M-25.6466 202.351H2.93832M-25.6466 202.351V227.05M-54.2316 202.351V227.05M2.93832 202.351H31.5233M2.93832 202.351V227.05M31.5233 202.351H60.1082M31.5233 202.351V227.05M60.1082 202.351H88.6932M60.1082 202.351V227.05M88.6932 202.351H117.278M88.6932 202.351V227.05M117.278 202.351H145.863M117.278 202.351V227.05M145.863 202.351H174.448M145.863 202.351V227.05M174.448 202.351H203.033M174.448 202.351V227.05M203.033 202.351H231.618M203.033 202.351V227.05M231.618 202.351H260.203M231.618 202.351V227.05M260.203 202.351H288.788M260.203 202.351V227.05M288.788 202.351H317.373M288.788 202.351V227.05M317.373 202.351H345.958M317.373 202.351V227.05M345.958 202.351H374.543M345.958 202.351V227.05M374.543 202.351V227.05M-25.6466 227.05H-54.2316M-25.6466 227.05H2.93832M-25.6466 227.05V251.748M-54.2316 227.05V251.748M2.93832 227.05H31.5233M2.93832 227.05V251.748M31.5233 227.05H60.1082M31.5233 227.05V251.748M60.1082 227.05H88.6932M60.1082 227.05V251.748M88.6932 227.05H117.278M88.6932 227.05V251.748M117.278 227.05H145.863M117.278 227.05V251.748M145.863 227.05H174.448M145.863 227.05V251.748M174.448 227.05H203.033M174.448 227.05V251.748M203.033 227.05H231.618M203.033 227.05V251.748M231.618 227.05H260.203M231.618 227.05V251.748M260.203 227.05H288.788M260.203 227.05V251.748M288.788 227.05H317.373M288.788 227.05V251.748M317.373 227.05H345.958M317.373 227.05V251.748M345.958 227.05H374.543M345.958 227.05V251.748M374.543 227.05V251.748M-25.6466 251.748H-54.2316M-25.6466 251.748H2.93832M-25.6466 251.748V276.447M-54.2316 251.748V276.447M2.93832 251.748H31.5233M2.93832 251.748V276.447M31.5233 251.748H60.1082M31.5233 251.748V276.447M60.1082 251.748H88.6932M60.1082 251.748V276.447M88.6932 251.748H117.278M88.6932 251.748V276.447M117.278 251.748H145.863M117.278 251.748V276.447M145.863 251.748H174.448M145.863 251.748V276.447M174.448 251.748H203.033M174.448 251.748V276.447M203.033 251.748H231.618M203.033 251.748V276.447M231.618 251.748H260.203M231.618 251.748V276.447M260.203 251.748H288.788M260.203 251.748V276.447M288.788 251.748H317.373M288.788 251.748V276.447M317.373 251.748H345.958M317.373 251.748V276.447M345.958 251.748H374.543M345.958 251.748V276.447M374.543 251.748V276.447M-25.6466 276.447H-54.2316M-25.6466 276.447H2.93832M-25.6466 276.447V301.146M-54.2316 276.447V301.146M2.93832 276.447H31.5233M2.93832 276.447V301.146M31.5233 276.447H60.1082M31.5233 276.447V301.146M60.1082 276.447H88.6932M60.1082 276.447V301.146M88.6932 276.447H117.278M88.6932 276.447V301.146M117.278 276.447H145.863M117.278 276.447V301.146M145.863 276.447H174.448M145.863 276.447V301.146M174.448 276.447H203.033M174.448 276.447V301.146M203.033 276.447H231.618M203.033 276.447V301.146M231.618 276.447H260.203M231.618 276.447V301.146M260.203 276.447H288.788M260.203 276.447V301.146M288.788 276.447H317.373M288.788 276.447V301.146M317.373 276.447H345.958M317.373 276.447V301.146M345.958 276.447H374.543M345.958 276.447V301.146M374.543 276.447V301.146M-25.6466 301.146H-54.2316M-25.6466 301.146H2.93832M-25.6466 301.146V325.845M-54.2316 301.146V325.845H-25.6466M2.93832 301.146H31.5233M2.93832 301.146V325.845M31.5233 301.146H60.1082M31.5233 301.146V325.845M60.1082 301.146H88.6932M60.1082 301.146V325.845M88.6932 301.146H117.278M88.6932 301.146V325.845M117.278 301.146H145.863M117.278 301.146V325.845M145.863 301.146H174.448M145.863 301.146V325.845M174.448 301.146H203.033M174.448 301.146V325.845M203.033 301.146H231.618M203.033 301.146V325.845M231.618 301.146H260.203M231.618 301.146V325.845M260.203 301.146H288.788M260.203 301.146V325.845M288.788 301.146H317.373M288.788 301.146V325.845M317.373 301.146H345.958M317.373 301.146V325.845M345.958 301.146H374.543M345.958 301.146V325.845M374.543 301.146V325.845H345.958M-25.6466 325.845H2.93832M2.93832 325.845H31.5233M31.5233 325.845H60.1082M60.1082 325.845H88.6932M88.6932 325.845H117.278M117.278 325.845H145.863M145.863 325.845H174.448M174.448 325.845H203.033M203.033 325.845H231.618M231.618 325.845H260.203M260.203 325.845H288.788M288.788 325.845H317.373M317.373 325.845H345.958" stroke="url(#paint5_radial_7_4370)" stroke-opacity="0.2"/>
</g>
</g>
<defs>
<radialGradient id="paint0_radial_7_4370" cx="0" cy="0" r="1" gradientTransform="matrix(-0.250219 17.5053 -36.7475 -0.358964 46.3159 153.54)" gradientUnits="userSpaceOnUse">
<stop stop-color="white" stop-opacity="0.8"/>
<stop offset="1" stop-color="#05041F"/>
</radialGradient>
<radialGradient id="paint1_radial_7_4370" cx="0" cy="0" r="1" gradientUnits="userSpaceOnUse" gradientTransform="translate(160.35 79.1946) rotate(90) scale(18.5859 39.0154)">
<stop stop-color="white" stop-opacity="0.8"/>
<stop offset="1" stop-color="#05041F"/>
</radialGradient>
<radialGradient id="paint2_radial_7_4370" cx="0" cy="0" r="1" gradientTransform="matrix(-0.750517 17.9375 -37.6585 -1.0768 131.606 226.587)" gradientUnits="userSpaceOnUse">
<stop stop-color="white" stop-opacity="0.8"/>
<stop offset="1" stop-color="#05041F"/>
</radialGradient>
<radialGradient id="paint3_radial_7_4370" cx="0" cy="0" r="1" gradientTransform="matrix(-0.250145 17.5053 -36.7475 -0.358859 246.661 177.961)" gradientUnits="userSpaceOnUse">
<stop stop-color="white" stop-opacity="0.8"/>
<stop offset="1" stop-color="#05041F"/>
</radialGradient>
<radialGradient id="paint4_radial_7_4370" cx="0" cy="0" r="1" gradientUnits="userSpaceOnUse" gradientTransform="translate(160.37 153.107) rotate(90) scale(19.0181 39.9227)">
<stop stop-color="white" stop-opacity="0.8"/>
<stop offset="1" stop-color="#05041F"/>
</radialGradient>
<radialGradient id="paint5_radial_7_4370" cx="0" cy="0" r="1" gradientUnits="userSpaceOnUse" gradientTransform="translate(160.395 140.758) rotate(90) scale(131.182 151.822)">
<stop stop-color="white"/>
<stop offset="1" stop-color="white" stop-opacity="0"/>
</radialGradient>
</defs>
</svg>
