<svg width="19" height="17" viewBox="0 0 19 17" fill="none" xmlns="http://www.w3.org/2000/svg">
<path d="M9.90537 10.1643C10.7879 10.1643 11.5034 9.4485 11.5034 8.56556C11.5034 7.68262 10.7879 6.96686 9.90537 6.96686C9.02282 6.96686 8.30737 7.68262 8.30737 8.56556C8.30737 9.4485 9.02282 10.1643 9.90537 10.1643Z" fill="#00D8FF"/>
<path d="M9.90518 12.228C7.66098 12.228 5.70009 11.9636 4.2326 11.4604C3.2808 11.1356 2.47226 10.7025 1.89608 10.2089C1.2849 9.68658 0.960205 9.11653 0.960205 8.56558C0.960205 7.50827 2.11891 6.47325 4.06389 5.7981C5.65552 5.24397 7.73101 4.93506 9.90199 4.93506C12.0348 4.93506 14.0816 5.23442 15.6637 5.78218C16.59 6.10065 17.3699 6.51465 17.9238 6.97325C18.5255 7.47642 18.8438 8.02737 18.8438 8.56558C18.8438 9.66429 17.5482 10.7757 15.46 11.4668C13.9829 11.9573 12.0093 12.228 9.90518 12.228ZM9.90518 5.69938C7.8456 5.69938 5.80832 5.99874 4.31855 6.51784C2.52955 7.14203 1.72737 7.99553 1.72737 8.56558C1.72737 9.15793 2.59004 10.091 4.4809 10.7375C5.8688 11.212 7.74692 11.4636 9.90518 11.4636C11.9297 11.4636 13.8174 11.2089 15.2212 10.7407C17.1853 10.0879 18.083 9.15474 18.083 8.56558C18.083 8.26304 17.8538 7.90635 17.4368 7.55923C16.9561 7.15796 16.2558 6.79172 15.4186 6.50192C13.9129 5.986 11.9552 5.69938 9.90518 5.69938Z" fill="#00D8FF"/>
<path d="M6.2797 16.5336C5.955 16.5336 5.66851 16.4636 5.42658 16.3234C4.51298 15.7948 4.19466 14.2725 4.57983 12.2502C4.89498 10.591 5.66533 8.64202 6.75082 6.75988C7.81721 4.91277 9.09689 3.28859 10.3606 2.18987C11.0992 1.54657 11.8472 1.07524 12.5221 0.826836C13.2574 0.556139 13.8941 0.556139 14.3588 0.823651C15.3106 1.37141 15.6258 3.05292 15.1801 5.20576C14.865 6.7344 14.1137 8.57832 13.0632 10.4031C11.9427 12.3458 10.7331 13.9126 9.56483 14.9349C8.80721 15.5973 8.02731 16.0814 7.31426 16.333C6.94182 16.4667 6.59166 16.5336 6.2797 16.5336ZM7.0787 6.95096L7.40976 7.14204C6.38156 8.92545 5.62076 10.8394 5.3279 12.3936C4.97456 14.2566 5.31517 15.3776 5.80539 15.661C5.92635 15.7311 6.08552 15.7693 6.2797 15.7693C6.91317 15.7693 7.90953 15.368 9.06187 14.3617C10.1665 13.3967 11.322 11.8936 12.4011 10.0242C13.4134 8.26941 14.1328 6.5051 14.432 5.05608C14.849 3.02744 14.4893 1.78542 13.9768 1.48925C13.7158 1.33957 13.2924 1.35868 12.7831 1.54657C12.1942 1.76313 11.5289 2.18669 10.8604 2.76948C9.66032 3.81406 8.43477 5.36817 7.40976 7.14522L7.0787 6.95096Z" fill="#00D8FF"/>
<path d="M13.5311 16.5435C12.6653 16.5435 11.567 16.0212 10.4211 15.0339C9.14139 13.932 7.83943 12.2919 6.75076 10.4098C5.68118 8.56268 4.9172 6.64233 4.59569 4.99585C4.40787 4.03408 4.37286 3.15193 4.49382 2.44175C4.62752 1.66787 4.94266 1.11692 5.4106 0.846227C6.35921 0.29528 7.97313 0.862151 9.61569 2.32391C10.7808 3.35893 12.0031 4.93216 13.0568 6.75379C14.1805 8.69644 14.9349 10.5276 15.2341 12.0499C15.4283 13.0371 15.4602 13.9543 15.3233 14.6995C15.1769 15.4925 14.8458 16.0562 14.3683 16.3333C14.1296 16.4734 13.8462 16.5435 13.5311 16.5435ZM7.41287 10.0276C8.44425 11.811 9.72392 13.4257 10.9208 14.4543C12.3565 15.69 13.4961 15.9575 13.9895 15.6709C14.502 15.3747 14.8776 14.1613 14.4893 12.1996C14.2028 10.7601 13.4802 9.00854 12.3979 7.13913C11.3824 5.38438 10.2141 3.87803 9.10955 2.89715C7.56249 1.52138 6.30828 1.21246 5.79578 1.50864C5.53475 1.65832 5.34057 2.03729 5.24826 2.57232C5.14321 3.19014 5.17504 3.97994 5.34694 4.84936C5.65253 6.41303 6.38468 8.25059 7.41287 10.0276Z" fill="#00D8FF"/>
</svg>
