<?xml version="1.0" encoding="UTF-8"?>
<svg version="1.1" xmlns="http://www.w3.org/2000/svg" width="225" height="225">
<path d="M0 0 C74.25 0 148.5 0 225 0 C225 74.25 225 148.5 225 225 C150.75 225 76.5 225 0 225 C0 150.75 0 76.5 0 0 Z " fill="#224289" transform="translate(0,0)"/>
<path d="M0 0 C90.33669355 0 90.33669355 0 112.9375 21.375 C126.98972598 36.41792094 132.97940809 56.08735677 132.35546875 76.39453125 C131.45678851 91.69805001 126.3442945 105.9062116 117 118 C116.48824219 118.68964844 115.97648437 119.37929687 115.44921875 120.08984375 C107.97369778 129.45743206 97.02613095 135.70829057 86 140 C85.26523438 140.29519531 84.53046875 140.59039062 83.7734375 140.89453125 C58.89616474 150.07650647 20.78595418 145 0 145 C0 97.15 0 49.3 0 0 Z " fill="#FDFDFD" transform="translate(58,40)"/>
<path d="M0 0 C4.42567288 -0.06975667 8.84935682 -0.12920639 13.27514648 -0.16479492 C14.77325992 -0.17966572 16.2713316 -0.19996866 17.76928711 -0.22631836 C35.30425878 -0.52651425 51.85247465 1.33747695 65.4375 13.6875 C74.42904106 23.53447309 77.56229405 35.99747515 77.24609375 49.0546875 C76.21685058 61.37293113 72.96820844 73.72417576 63.75 82.4375 C49.86483828 93.59191325 34.25911461 94.45788417 17.1875 94.1875 C15.51238195 94.17241177 13.83725061 94.15873075 12.16210938 94.14648438 C8.10746471 94.11642028 4.0547152 94.05764998 0 94 C0 85.75 0 77.5 0 69 C3.72410156 68.97873047 3.72410156 68.97873047 7.5234375 68.95703125 C9.95960548 68.92631344 12.39550902 68.88725048 14.83154297 68.84741211 C16.50918045 68.82438445 18.18695937 68.80987256 19.86474609 68.80444336 C33.74642156 68.94286836 33.74642156 68.94286836 46 63 C50.72963489 57.31129803 51.3685137 50.95102753 51.2734375 43.8203125 C50.78400235 38.7721385 49.05955684 35.04391463 45.45703125 31.46875 C39.23003536 26.56695003 31.94757063 25.7729251 24.21875 25.5859375 C23.51979614 25.56657135 22.82084229 25.5472052 22.10070801 25.5272522 C19.90059036 25.4681785 17.70041828 25.42136527 15.5 25.375 C13.99477071 25.33675343 12.48956175 25.29769799 10.984375 25.2578125 C7.3230314 25.1610369 3.66186518 25.08090167 0 25 C0 16.75 0 8.5 0 0 Z " fill="#224289" transform="translate(85,65)"/>
</svg>
