<svg width="55" height="55" viewBox="0 0 55 55" fill="none" xmlns="http://www.w3.org/2000/svg">
<path d="M55 0H0V55H55V0Z" fill="#FF7900"/>
<path d="M21.5732 49.6649C20.7972 50.1693 19.9435 50.4215 19.0511 50.4215C17.6155 50.4215 16.7813 49.4709 16.7813 48.1905C16.7813 46.4833 18.3527 45.5714 21.5926 45.2028V44.776C21.5926 44.2134 21.1658 43.903 20.3897 43.903C19.6137 43.903 18.9735 44.2134 18.5273 44.776L17.1693 44C17.8871 43.0106 18.9735 42.5062 20.4285 42.5062C22.4268 42.5062 23.552 43.3792 23.552 44.776C23.552 44.776 23.552 50.3051 23.552 50.3245H21.7672L21.5732 49.6649ZM18.7407 48.0547C18.7407 48.5591 19.0705 49.0441 19.6525 49.0441C20.2927 49.0441 20.8942 48.7725 21.515 48.2293V46.4251C19.6331 46.6773 18.7407 47.1429 18.7407 48.0547Z" fill="white"/>
<path d="M25.1234 42.8942L26.7919 42.6614L26.9665 43.5732C27.9171 42.8942 28.6543 42.5256 29.6049 42.5256C31.1764 42.5256 31.9912 43.3598 31.9912 45.0088V50.3439H29.9735V45.358C29.9735 44.4268 29.7213 44 29.0035 44C28.4021 44 27.8007 44.2716 27.1217 44.8536V50.3439H25.1234V42.8942Z" fill="white"/>
<path d="M45.3386 50.4797C43.0882 50.4797 41.7302 49.0247 41.7302 46.5027C41.7302 43.9612 43.0882 42.5062 45.2998 42.5062C47.5115 42.5062 48.8307 43.903 48.8307 46.4057C48.8307 46.5415 48.8113 46.6773 48.8113 46.7937H43.709C43.7284 48.2487 44.3298 48.9665 45.5132 48.9665C46.2698 48.9665 46.7743 48.6561 47.2399 47.9771L48.7143 48.7919C48.0741 49.8977 46.9101 50.4797 45.3386 50.4797ZM46.8519 45.4938C46.8519 44.4656 46.2698 43.8642 45.3192 43.8642C44.4074 43.8642 43.8448 44.4462 43.7672 45.4938H46.8519Z" fill="white"/>
<path d="M6.77071 50.5573C4.77247 50.5573 2.98764 49.2963 2.98764 46.5221C2.98764 43.7478 4.79187 42.4868 6.77071 42.4868C8.76895 42.4868 10.5538 43.7478 10.5538 46.5221C10.5538 49.2963 8.76895 50.5573 6.77071 50.5573ZM6.77071 44.1746C5.27688 44.1746 4.98588 45.5326 4.98588 46.5027C4.98588 47.4921 5.25748 48.8307 6.77071 48.8307C8.28394 48.8307 8.55554 47.4727 8.55554 46.5027C8.55554 45.5326 8.26454 44.1746 6.77071 44.1746Z" fill="white"/>
<path d="M11.9312 42.6808H13.8518V43.5732C14.2205 43.0882 15.1129 42.5062 15.9665 42.5062C16.0441 42.5062 16.1411 42.5062 16.2187 42.5256V44.4074C16.1799 44.4074 16.1605 44.4074 16.1217 44.4074C15.2487 44.4074 14.2787 44.5432 13.9877 45.2222V50.3051H11.9312V42.6808Z" fill="white"/>
<path d="M36.9189 48.6949C38.4515 48.6755 38.5679 47.1235 38.5679 46.1147C38.5679 44.9118 37.9859 43.9418 36.8995 43.9418C36.1816 43.9418 35.3668 44.4656 35.3668 46.1923C35.3862 47.1429 35.4444 48.6949 36.9189 48.6949ZM40.5273 42.6614V49.9171C40.5273 51.1975 40.4303 53.2928 36.7831 53.3316C35.2698 53.3316 33.8924 52.7302 33.6014 51.4304L35.5802 51.1199C35.6578 51.4886 35.8906 51.8766 37.0159 51.8766C38.0635 51.8766 38.5679 51.3722 38.5679 50.1887V49.2963L38.5485 49.2769C38.2381 49.8395 37.7337 50.3827 36.5697 50.3827C34.7848 50.3827 33.388 49.1411 33.388 46.5609C33.388 44 34.843 42.5644 36.4727 42.5644C38.0053 42.5644 38.5679 43.2628 38.7037 43.6314H38.6843L38.8589 42.7196H40.5273V42.6614Z" fill="white"/>
<path d="M49.6067 40.1199H48.8113V42.3122H48.3845V40.1199H47.5891V39.7901H49.5873V40.1199H49.6067ZM52.9047 42.3122H52.4779V40.1975H52.4585L51.6243 42.3122H51.3527L50.5185 40.1975H50.4991V42.3122H50.0723V39.7901H50.7125L51.4691 41.7108L52.2063 39.7901H52.8465V42.3122H52.9047Z" fill="white"/>
</svg>
